<mxfile host="65bd71144e">
    <diagram id="STYTBFTI59UFgUXPEAOC" name="Page-1">
        <mxGraphModel dx="204" dy="1376" grid="1" gridSize="10" guides="1" tooltips="1" connect="1" arrows="1" fold="1" page="1" pageScale="1" pageWidth="827" pageHeight="1169" math="0" shadow="0">
            <root>
                <mxCell id="0"/>
                <mxCell id="1" parent="0"/>
                <mxCell id="2" value="" style="rounded=0;whiteSpace=wrap;html=1;fillColor=#FFE6CC;" parent="1" vertex="1">
                    <mxGeometry x="93" y="-694" width="640" height="170" as="geometry"/>
                </mxCell>
                <mxCell id="4" value="&lt;font color=&quot;#000000&quot;&gt;HttpClient&lt;/font&gt;" style="rounded=1;whiteSpace=wrap;html=1;dashed=1;fillColor=#FFFFFF;strokeColor=#FF6666;" parent="1" vertex="1">
                    <mxGeometry x="363" y="-664" width="120" height="30" as="geometry"/>
                </mxCell>
                <mxCell id="8" style="edgeStyle=none;html=1;entryX=0.5;entryY=1;entryDx=0;entryDy=0;strokeColor=#FF6666;" parent="1" source="6" target="4" edge="1">
                    <mxGeometry relative="1" as="geometry"/>
                </mxCell>
                <mxCell id="24" style="edgeStyle=none;rounded=0;html=1;exitX=0;exitY=0.5;exitDx=0;exitDy=0;entryX=1;entryY=0.5;entryDx=0;entryDy=0;strokeColor=#FF6666;" edge="1" parent="1" source="6" target="17">
                    <mxGeometry relative="1" as="geometry"/>
                </mxCell>
                <mxCell id="25" style="edgeStyle=none;rounded=0;html=1;strokeColor=#FF6666;" edge="1" parent="1" source="6" target="18">
                    <mxGeometry relative="1" as="geometry"/>
                </mxCell>
                <mxCell id="6" value="&lt;font color=&quot;#000000&quot;&gt;RemoteAuthentication&lt;/font&gt;" style="rounded=0;whiteSpace=wrap;html=1;fillColor=#FFFFFF;strokeColor=#FF6666;" parent="1" vertex="1">
                    <mxGeometry x="353" y="-594" width="140" height="40" as="geometry"/>
                </mxCell>
                <mxCell id="10" value="" style="rounded=0;whiteSpace=wrap;html=1;fillColor=#FFCCCC;" parent="1" vertex="1">
                    <mxGeometry x="93" y="-370" width="640" height="150" as="geometry"/>
                </mxCell>
                <mxCell id="9" value="data" style="text;html=1;strokeColor=none;fillColor=none;align=center;verticalAlign=middle;whiteSpace=wrap;rounded=0;" parent="1" vertex="1">
                    <mxGeometry x="678" y="-730" width="57" height="30" as="geometry"/>
                </mxCell>
                <mxCell id="16" style="edgeStyle=none;html=1;exitX=1;exitY=0.5;exitDx=0;exitDy=0;entryX=0;entryY=0.5;entryDx=0;entryDy=0;strokeColor=#FF6666;" parent="1" source="11" target="12" edge="1">
                    <mxGeometry relative="1" as="geometry"/>
                </mxCell>
                <mxCell id="27" style="edgeStyle=none;rounded=0;html=1;entryX=1;entryY=0.5;entryDx=0;entryDy=0;strokeColor=#FF6666;" edge="1" parent="1" source="11" target="19">
                    <mxGeometry relative="1" as="geometry"/>
                </mxCell>
                <mxCell id="11" value="&lt;font color=&quot;#000000&quot;&gt;Authentication&lt;/font&gt;" style="rounded=1;whiteSpace=wrap;html=1;strokeColor=#FF6666;fillColor=#FFFFFF;dashed=1;" parent="1" vertex="1">
                    <mxGeometry x="363" y="-315" width="120" height="40" as="geometry"/>
                </mxCell>
                <mxCell id="12" value="&lt;font color=&quot;#000000&quot;&gt;Account&lt;/font&gt;" style="rounded=0;whiteSpace=wrap;html=1;fillColor=#FFFFFF;strokeColor=#FF6666;" parent="1" vertex="1">
                    <mxGeometry x="558" y="-315" width="120" height="40" as="geometry"/>
                </mxCell>
                <mxCell id="14" style="edgeStyle=none;html=1;exitX=0.75;exitY=1;exitDx=0;exitDy=0;entryX=0.25;entryY=0;entryDx=0;entryDy=0;strokeColor=#FF6666;rounded=0;dashed=1;" parent="1" source="6" target="12" edge="1">
                    <mxGeometry relative="1" as="geometry">
                        <Array as="points">
                            <mxPoint x="458" y="-410"/>
                            <mxPoint x="588" y="-410"/>
                        </Array>
                    </mxGeometry>
                </mxCell>
                <mxCell id="15" value="Domain" style="text;html=1;strokeColor=none;fillColor=none;align=center;verticalAlign=middle;whiteSpace=wrap;rounded=0;" parent="1" vertex="1">
                    <mxGeometry x="686" y="-400" width="47" height="30" as="geometry"/>
                </mxCell>
                <mxCell id="22" style="edgeStyle=none;rounded=0;html=1;exitX=0.25;exitY=1;exitDx=0;exitDy=0;entryX=0.75;entryY=0;entryDx=0;entryDy=0;dashed=1;strokeColor=#FF6666;" edge="1" parent="1" source="6" target="19">
                    <mxGeometry relative="1" as="geometry">
                        <Array as="points">
                            <mxPoint x="388" y="-410"/>
                            <mxPoint x="238" y="-410"/>
                        </Array>
                    </mxGeometry>
                </mxCell>
                <mxCell id="23" style="edgeStyle=none;rounded=0;html=1;strokeColor=#FF6666;" edge="1" parent="1" source="17" target="19">
                    <mxGeometry relative="1" as="geometry"/>
                </mxCell>
                <mxCell id="17" value="&lt;font color=&quot;#000000&quot;&gt;RemoteAuthenticationParams&lt;/font&gt;" style="rounded=0;whiteSpace=wrap;html=1;fillColor=#FFFFFF;strokeColor=#FF6666;" vertex="1" parent="1">
                    <mxGeometry x="123" y="-594" width="170" height="40" as="geometry"/>
                </mxCell>
                <mxCell id="26" style="edgeStyle=none;rounded=0;html=1;exitX=0.5;exitY=1;exitDx=0;exitDy=0;strokeColor=#FF6666;" edge="1" parent="1" source="18" target="12">
                    <mxGeometry relative="1" as="geometry"/>
                </mxCell>
                <mxCell id="18" value="&lt;font color=&quot;#000000&quot;&gt;RemoteAccountModel&lt;/font&gt;" style="rounded=0;whiteSpace=wrap;html=1;fillColor=#FFFFFF;strokeColor=#FF6666;" vertex="1" parent="1">
                    <mxGeometry x="548" y="-594" width="140" height="40" as="geometry"/>
                </mxCell>
                <mxCell id="19" value="&lt;font color=&quot;#000000&quot;&gt;Authentication&lt;/font&gt;" style="rounded=1;whiteSpace=wrap;html=1;strokeColor=#FF6666;fillColor=#FFFFFF;" vertex="1" parent="1">
                    <mxGeometry x="148" y="-315" width="120" height="40" as="geometry"/>
                </mxCell>
                <mxCell id="20" style="edgeStyle=none;html=1;exitX=0.5;exitY=1;exitDx=0;exitDy=0;entryX=0.5;entryY=0;entryDx=0;entryDy=0;fillColor=#d80073;strokeColor=#FF6666;" edge="1" parent="1" source="6" target="11">
                    <mxGeometry relative="1" as="geometry"/>
                </mxCell>
                <mxCell id="28" value="" style="rounded=0;whiteSpace=wrap;html=1;fillColor=#b1ddf0;strokeColor=#10739E;" vertex="1" parent="1">
                    <mxGeometry x="93" y="-990" width="640" height="170" as="geometry"/>
                </mxCell>
                <mxCell id="39" style="edgeStyle=none;rounded=0;html=1;exitX=0.5;exitY=1;exitDx=0;exitDy=0;strokeColor=#10739E;" edge="1" parent="1" source="29" target="4">
                    <mxGeometry relative="1" as="geometry"/>
                </mxCell>
                <mxCell id="40" style="edgeStyle=none;rounded=0;html=1;exitX=0.5;exitY=0;exitDx=0;exitDy=0;entryX=0.5;entryY=1;entryDx=0;entryDy=0;strokeColor=#10739E;" edge="1" parent="1" source="29" target="37">
                    <mxGeometry relative="1" as="geometry"/>
                </mxCell>
                <mxCell id="29" value="&lt;font color=&quot;#000000&quot;&gt;HttpAdapter&lt;/font&gt;" style="rounded=1;whiteSpace=wrap;html=1;fillColor=#FFFFFF;strokeColor=#10739E;" vertex="1" parent="1">
                    <mxGeometry x="363" y="-920" width="120" height="30" as="geometry"/>
                </mxCell>
                <mxCell id="34" value="Infra" style="text;html=1;strokeColor=none;fillColor=none;align=center;verticalAlign=middle;whiteSpace=wrap;rounded=0;" vertex="1" parent="1">
                    <mxGeometry x="709" y="-1020" width="24" height="30" as="geometry"/>
                </mxCell>
                <mxCell id="37" value="&lt;font color=&quot;#000000&quot;&gt;Http&lt;/font&gt;" style="rounded=1;whiteSpace=wrap;html=1;fillColor=#FFFFFF;strokeColor=#000000;" vertex="1" parent="1">
                    <mxGeometry x="363" y="-1090" width="120" height="30" as="geometry"/>
                </mxCell>
            </root>
        </mxGraphModel>
    </diagram>
</mxfile>